<mxfile host="app.diagrams.net" modified="2023-05-03T13:52:41.156Z" agent="Mozilla/5.0 (Windows NT 10.0; Win64; x64; rv:109.0) Gecko/20100101 Firefox/112.0" etag="PNiA6k7Ygn1lTSrexkO2" version="21.2.6" type="device">
  <diagram name="Page-1" id="c4S2D4guLHL56aYuTjdg">
    <mxGraphModel dx="1366" dy="782" grid="1" gridSize="10" guides="1" tooltips="1" connect="1" arrows="1" fold="1" page="1" pageScale="1" pageWidth="827" pageHeight="1169" math="0" shadow="0">
      <root>
        <mxCell id="0" />
        <mxCell id="1" parent="0" />
        <mxCell id="8zPGC6kLLm4aPPDFNiIK-1" value="&lt;div&gt;Home&lt;/div&gt;" style="rounded=0;whiteSpace=wrap;html=1;fillColor=#e1d5e7;strokeColor=#9673a6;" parent="1" vertex="1">
          <mxGeometry x="740" y="120" width="120" height="60" as="geometry" />
        </mxCell>
        <mxCell id="8zPGC6kLLm4aPPDFNiIK-8" value="" style="endArrow=classic;html=1;rounded=0;movable=1;resizable=1;rotatable=1;deletable=1;editable=1;locked=0;connectable=1;edgeStyle=orthogonalEdgeStyle;" parent="1" source="NcC6NG_0m3Hqj47DifXg-135" target="8zPGC6kLLm4aPPDFNiIK-15" edge="1">
          <mxGeometry width="50" height="50" relative="1" as="geometry">
            <mxPoint x="590" y="530" as="sourcePoint" />
            <mxPoint x="250" y="240" as="targetPoint" />
            <Array as="points">
              <mxPoint x="280" y="300" />
              <mxPoint x="280" y="300" />
            </Array>
          </mxGeometry>
        </mxCell>
        <mxCell id="8zPGC6kLLm4aPPDFNiIK-9" value="" style="endArrow=classic;html=1;rounded=0;edgeStyle=orthogonalEdgeStyle;" parent="1" source="NcC6NG_0m3Hqj47DifXg-2" target="8zPGC6kLLm4aPPDFNiIK-15" edge="1">
          <mxGeometry width="50" height="50" relative="1" as="geometry">
            <mxPoint x="600" y="160" as="sourcePoint" />
            <mxPoint x="450" y="240" as="targetPoint" />
            <Array as="points">
              <mxPoint x="380" y="170" />
            </Array>
          </mxGeometry>
        </mxCell>
        <mxCell id="8zPGC6kLLm4aPPDFNiIK-10" value="" style="endArrow=classic;html=1;rounded=0;edgeStyle=orthogonalEdgeStyle;" parent="1" source="NcC6NG_0m3Hqj47DifXg-5" target="8zPGC6kLLm4aPPDFNiIK-14" edge="1">
          <mxGeometry width="50" height="50" relative="1" as="geometry">
            <mxPoint x="610" y="170" as="sourcePoint" />
            <mxPoint x="650" y="240" as="targetPoint" />
            <Array as="points">
              <mxPoint x="640" y="300" />
              <mxPoint x="640" y="300" />
            </Array>
          </mxGeometry>
        </mxCell>
        <mxCell id="8zPGC6kLLm4aPPDFNiIK-11" value="" style="endArrow=classic;html=1;rounded=0;edgeStyle=orthogonalEdgeStyle;" parent="1" source="NcC6NG_0m3Hqj47DifXg-7" target="8zPGC6kLLm4aPPDFNiIK-16" edge="1">
          <mxGeometry width="50" height="50" relative="1" as="geometry">
            <mxPoint x="636" y="190" as="sourcePoint" />
            <mxPoint x="850" y="240" as="targetPoint" />
            <Array as="points">
              <mxPoint x="810" y="300" />
              <mxPoint x="810" y="300" />
            </Array>
          </mxGeometry>
        </mxCell>
        <mxCell id="8zPGC6kLLm4aPPDFNiIK-12" value="" style="endArrow=none;html=1;rounded=0;edgeStyle=orthogonalEdgeStyle;" parent="1" source="8zPGC6kLLm4aPPDFNiIK-1" target="NcC6NG_0m3Hqj47DifXg-10" edge="1">
          <mxGeometry width="50" height="50" relative="1" as="geometry">
            <mxPoint x="600" y="168" as="sourcePoint" />
            <mxPoint x="1130" y="240" as="targetPoint" />
            <Array as="points">
              <mxPoint x="1200" y="170" />
              <mxPoint x="1200" y="245" />
            </Array>
          </mxGeometry>
        </mxCell>
        <mxCell id="8zPGC6kLLm4aPPDFNiIK-13" value="" style="endArrow=none;html=1;rounded=0;edgeStyle=orthogonalEdgeStyle;" parent="1" source="8zPGC6kLLm4aPPDFNiIK-1" edge="1" target="NcC6NG_0m3Hqj47DifXg-13">
          <mxGeometry width="50" height="50" relative="1" as="geometry">
            <mxPoint x="600" y="160" as="sourcePoint" />
            <mxPoint x="1450" y="160" as="targetPoint" />
            <Array as="points">
              <mxPoint x="1450" y="130" />
            </Array>
          </mxGeometry>
        </mxCell>
        <mxCell id="8zPGC6kLLm4aPPDFNiIK-14" value="&lt;div&gt;Elenco offerte&lt;/div&gt;&lt;div&gt;&amp;lt;AZIENDA&amp;gt;&lt;/div&gt;" style="rounded=0;whiteSpace=wrap;html=1;fillColor=#e1d5e7;strokeColor=#9673a6;" parent="1" vertex="1">
          <mxGeometry x="580" y="320" width="120" height="60" as="geometry" />
        </mxCell>
        <mxCell id="8zPGC6kLLm4aPPDFNiIK-15" value="&lt;div&gt;Elenco offerte&lt;/div&gt;&lt;div&gt;&amp;lt;CHIAVE&amp;gt;&lt;/div&gt;" style="rounded=0;whiteSpace=wrap;html=1;fillColor=#e1d5e7;strokeColor=#9673a6;" parent="1" vertex="1">
          <mxGeometry x="270" y="350" width="120" height="60" as="geometry" />
        </mxCell>
        <mxCell id="8zPGC6kLLm4aPPDFNiIK-16" value="Lista aziende" style="rounded=0;whiteSpace=wrap;html=1;fillColor=#e1d5e7;strokeColor=#9673a6;" parent="1" vertex="1">
          <mxGeometry x="750" y="320" width="120" height="60" as="geometry" />
        </mxCell>
        <mxCell id="8zPGC6kLLm4aPPDFNiIK-17" value="&lt;div&gt;Pagina azienda X&lt;br&gt;&lt;/div&gt;&lt;div&gt;(con lista coupon)&lt;br&gt;&lt;/div&gt;" style="rounded=0;whiteSpace=wrap;html=1;fillColor=#e1d5e7;strokeColor=#9673a6;" parent="1" vertex="1">
          <mxGeometry x="750" y="480" width="120" height="60" as="geometry" />
        </mxCell>
        <mxCell id="8zPGC6kLLm4aPPDFNiIK-18" value="&lt;div&gt;Pagina Coupon&lt;/div&gt;&lt;div&gt;&amp;nbsp;(solo se profilo LV.1 puÃ² vedere il codice)&lt;/div&gt;" style="rounded=0;whiteSpace=wrap;html=1;fillColor=#e1d5e7;strokeColor=#9673a6;" parent="1" vertex="1">
          <mxGeometry x="390" y="480" width="120" height="60" as="geometry" />
        </mxCell>
        <mxCell id="8zPGC6kLLm4aPPDFNiIK-19" value="&lt;div&gt;Schermata LogIn&lt;/div&gt;" style="rounded=0;whiteSpace=wrap;html=1;fillColor=#e1d5e7;strokeColor=#9673a6;" parent="1" vertex="1">
          <mxGeometry x="920" y="340" width="120" height="60" as="geometry" />
        </mxCell>
        <mxCell id="8zPGC6kLLm4aPPDFNiIK-20" value="&lt;div&gt;Elenco FAQ&lt;/div&gt;" style="rounded=0;whiteSpace=wrap;html=1;fillColor=#e1d5e7;strokeColor=#9673a6;" parent="1" vertex="1">
          <mxGeometry x="1390" y="215" width="120" height="60" as="geometry" />
        </mxCell>
        <mxCell id="8zPGC6kLLm4aPPDFNiIK-23" value="" style="endArrow=classic;html=1;rounded=0;edgeStyle=orthogonalEdgeStyle;" parent="1" source="NcC6NG_0m3Hqj47DifXg-137" target="8zPGC6kLLm4aPPDFNiIK-18" edge="1">
          <mxGeometry width="50" height="50" relative="1" as="geometry">
            <mxPoint x="760" y="430" as="sourcePoint" />
            <mxPoint x="810" y="380" as="targetPoint" />
            <Array as="points">
              <mxPoint x="330" y="510" />
            </Array>
          </mxGeometry>
        </mxCell>
        <mxCell id="8zPGC6kLLm4aPPDFNiIK-24" value="" style="endArrow=classic;html=1;rounded=0;edgeStyle=orthogonalEdgeStyle;" parent="1" source="NcC6NG_0m3Hqj47DifXg-13" target="8zPGC6kLLm4aPPDFNiIK-20" edge="1">
          <mxGeometry width="50" height="50" relative="1" as="geometry">
            <mxPoint x="1450" y="300" as="sourcePoint" />
            <mxPoint x="1010" y="380" as="targetPoint" />
            <Array as="points">
              <mxPoint x="1450" y="230" />
              <mxPoint x="1450" y="230" />
            </Array>
          </mxGeometry>
        </mxCell>
        <mxCell id="8zPGC6kLLm4aPPDFNiIK-27" value="Schermata registrazione" style="rounded=0;whiteSpace=wrap;html=1;fillColor=#e1d5e7;strokeColor=#9673a6;" parent="1" vertex="1">
          <mxGeometry x="890" y="540" width="120" height="60" as="geometry" />
        </mxCell>
        <mxCell id="8zPGC6kLLm4aPPDFNiIK-29" value="" style="endArrow=classic;html=1;rounded=0;edgeStyle=orthogonalEdgeStyle;" parent="1" source="NcC6NG_0m3Hqj47DifXg-22" target="8zPGC6kLLm4aPPDFNiIK-27" edge="1">
          <mxGeometry width="50" height="50" relative="1" as="geometry">
            <mxPoint x="1140" y="410" as="sourcePoint" />
            <mxPoint x="1260" y="470" as="targetPoint" />
            <Array as="points">
              <mxPoint x="960" y="490" />
              <mxPoint x="960" y="490" />
            </Array>
          </mxGeometry>
        </mxCell>
        <mxCell id="8zPGC6kLLm4aPPDFNiIK-30" value="" style="endArrow=classic;html=1;rounded=0;edgeStyle=orthogonalEdgeStyle;" parent="1" source="NcC6NG_0m3Hqj47DifXg-34" edge="1" target="8zPGC6kLLm4aPPDFNiIK-26">
          <mxGeometry width="50" height="50" relative="1" as="geometry">
            <mxPoint x="760" y="480" as="sourcePoint" />
            <mxPoint x="1170" y="650" as="targetPoint" />
            <Array as="points" />
          </mxGeometry>
        </mxCell>
        <mxCell id="8zPGC6kLLm4aPPDFNiIK-32" value="" style="endArrow=classic;html=1;rounded=0;edgeStyle=orthogonalEdgeStyle;" parent="1" source="NcC6NG_0m3Hqj47DifXg-38" target="8zPGC6kLLm4aPPDFNiIK-18" edge="1">
          <mxGeometry width="50" height="50" relative="1" as="geometry">
            <mxPoint x="760" y="500" as="sourcePoint" />
            <mxPoint x="810" y="450" as="targetPoint" />
            <Array as="points">
              <mxPoint x="490" y="440" />
              <mxPoint x="490" y="440" />
            </Array>
          </mxGeometry>
        </mxCell>
        <mxCell id="8zPGC6kLLm4aPPDFNiIK-34" value="" style="endArrow=classic;html=1;rounded=0;" parent="1" source="NcC6NG_0m3Hqj47DifXg-36" target="8zPGC6kLLm4aPPDFNiIK-17" edge="1">
          <mxGeometry width="50" height="50" relative="1" as="geometry">
            <mxPoint x="760" y="500" as="sourcePoint" />
            <mxPoint x="810" y="450" as="targetPoint" />
          </mxGeometry>
        </mxCell>
        <mxCell id="8zPGC6kLLm4aPPDFNiIK-35" value="" style="endArrow=classic;html=1;rounded=0;edgeStyle=orthogonalEdgeStyle;" parent="1" source="NcC6NG_0m3Hqj47DifXg-133" target="8zPGC6kLLm4aPPDFNiIK-18" edge="1">
          <mxGeometry width="50" height="50" relative="1" as="geometry">
            <mxPoint x="760" y="500" as="sourcePoint" />
            <mxPoint x="810" y="450" as="targetPoint" />
          </mxGeometry>
        </mxCell>
        <mxCell id="NcC6NG_0m3Hqj47DifXg-3" value="" style="endArrow=none;html=1;rounded=0;edgeStyle=orthogonalEdgeStyle;" parent="1" source="8zPGC6kLLm4aPPDFNiIK-1" target="NcC6NG_0m3Hqj47DifXg-2" edge="1">
          <mxGeometry width="50" height="50" relative="1" as="geometry">
            <mxPoint x="740" y="150" as="sourcePoint" />
            <mxPoint x="450" y="240" as="targetPoint" />
            <Array as="points">
              <mxPoint x="550" y="170" />
              <mxPoint x="550" y="170" />
            </Array>
          </mxGeometry>
        </mxCell>
        <mxCell id="NcC6NG_0m3Hqj47DifXg-2" value="Cerca" style="text;strokeColor=none;fillColor=none;align=left;verticalAlign=middle;spacingLeft=4;spacingRight=4;overflow=hidden;points=[[0,0.5],[1,0.5]];portConstraint=eastwest;rotatable=0;whiteSpace=wrap;html=1;fontColor=#0080FF;" parent="1" vertex="1">
          <mxGeometry x="460" y="160" width="50" height="20" as="geometry" />
        </mxCell>
        <mxCell id="NcC6NG_0m3Hqj47DifXg-4" value="" style="endArrow=none;html=1;rounded=0;movable=1;resizable=1;rotatable=1;deletable=1;editable=1;locked=0;connectable=1;edgeStyle=orthogonalEdgeStyle;" parent="1" source="8zPGC6kLLm4aPPDFNiIK-1" target="NcC6NG_0m3Hqj47DifXg-1" edge="1">
          <mxGeometry width="50" height="50" relative="1" as="geometry">
            <mxPoint x="740" y="150" as="sourcePoint" />
            <mxPoint x="250" y="240" as="targetPoint" />
            <Array as="points">
              <mxPoint x="280" y="130" />
            </Array>
          </mxGeometry>
        </mxCell>
        <mxCell id="NcC6NG_0m3Hqj47DifXg-1" value="&lt;div&gt;Categorie&lt;/div&gt;" style="text;strokeColor=none;fillColor=none;align=left;verticalAlign=middle;spacingLeft=4;spacingRight=4;overflow=hidden;points=[[0,0.5],[1,0.5]];portConstraint=eastwest;rotatable=0;whiteSpace=wrap;html=1;fontColor=#0080ff;" parent="1" vertex="1">
          <mxGeometry x="245.06" y="170" width="70" height="20" as="geometry" />
        </mxCell>
        <mxCell id="NcC6NG_0m3Hqj47DifXg-6" value="" style="endArrow=none;html=1;rounded=0;edgeStyle=orthogonalEdgeStyle;" parent="1" source="8zPGC6kLLm4aPPDFNiIK-1" target="NcC6NG_0m3Hqj47DifXg-5" edge="1">
          <mxGeometry width="50" height="50" relative="1" as="geometry">
            <mxPoint x="740" y="150" as="sourcePoint" />
            <mxPoint x="650" y="240" as="targetPoint" />
            <Array as="points">
              <mxPoint x="750" y="210" />
              <mxPoint x="640" y="210" />
            </Array>
          </mxGeometry>
        </mxCell>
        <mxCell id="NcC6NG_0m3Hqj47DifXg-5" value="&lt;div&gt;Tutte le Offerte&lt;/div&gt;" style="text;strokeColor=none;fillColor=none;align=left;verticalAlign=middle;spacingLeft=4;spacingRight=4;overflow=hidden;points=[[0,0.5],[1,0.5]];portConstraint=eastwest;rotatable=0;whiteSpace=wrap;html=1;fontColor=#0080ff;" parent="1" vertex="1">
          <mxGeometry x="600" y="245" width="90" height="15" as="geometry" />
        </mxCell>
        <mxCell id="NcC6NG_0m3Hqj47DifXg-7" value="&lt;div&gt;Aziende&lt;/div&gt;" style="text;strokeColor=none;fillColor=none;align=left;verticalAlign=middle;spacingLeft=4;spacingRight=4;overflow=hidden;points=[[0,0.5],[1,0.5]];portConstraint=eastwest;rotatable=0;whiteSpace=wrap;html=1;fontColor=#0080FF;" parent="1" vertex="1">
          <mxGeometry x="780" y="260" width="60" height="15" as="geometry" />
        </mxCell>
        <mxCell id="NcC6NG_0m3Hqj47DifXg-9" value="" style="endArrow=none;html=1;rounded=0;edgeStyle=orthogonalEdgeStyle;" parent="1" source="8zPGC6kLLm4aPPDFNiIK-1" target="NcC6NG_0m3Hqj47DifXg-7" edge="1">
          <mxGeometry width="50" height="50" relative="1" as="geometry">
            <mxPoint x="920" y="255" as="sourcePoint" />
            <mxPoint x="860" y="350" as="targetPoint" />
            <Array as="points">
              <mxPoint x="810" y="220" />
              <mxPoint x="810" y="220" />
            </Array>
          </mxGeometry>
        </mxCell>
        <mxCell id="NcC6NG_0m3Hqj47DifXg-10" value="&lt;div&gt;Account&lt;/div&gt;" style="text;strokeColor=none;fillColor=none;align=left;verticalAlign=middle;spacingLeft=4;spacingRight=4;overflow=hidden;points=[[0,0.5],[1,0.5]];portConstraint=eastwest;rotatable=0;whiteSpace=wrap;html=1;fontColor=#0080FF;" parent="1" vertex="1">
          <mxGeometry x="1170" y="235" width="60" height="20" as="geometry" />
        </mxCell>
        <mxCell id="NcC6NG_0m3Hqj47DifXg-12" value="" style="endArrow=classic;html=1;rounded=0;edgeStyle=orthogonalEdgeStyle;" parent="1" source="NcC6NG_0m3Hqj47DifXg-18" target="8zPGC6kLLm4aPPDFNiIK-19" edge="1">
          <mxGeometry width="50" height="50" relative="1" as="geometry">
            <mxPoint x="1050" y="220" as="sourcePoint" />
            <mxPoint x="1270" y="220" as="targetPoint" />
            <Array as="points">
              <mxPoint x="960" y="245" />
            </Array>
          </mxGeometry>
        </mxCell>
        <mxCell id="NcC6NG_0m3Hqj47DifXg-13" value="FAQ" style="text;strokeColor=none;fillColor=none;align=left;verticalAlign=middle;spacingLeft=4;spacingRight=4;overflow=hidden;points=[[0,0.5],[1,0.5]];portConstraint=eastwest;rotatable=0;whiteSpace=wrap;html=1;fontColor=#0080FF;" parent="1" vertex="1">
          <mxGeometry x="1430" y="160" width="40" height="20" as="geometry" />
        </mxCell>
        <mxCell id="NcC6NG_0m3Hqj47DifXg-15" value="" style="endArrow=classic;html=1;rounded=0;movable=1;resizable=1;rotatable=1;deletable=1;editable=1;locked=0;connectable=1;edgeStyle=orthogonalEdgeStyle;" parent="1" source="NcC6NG_0m3Hqj47DifXg-1" target="NcC6NG_0m3Hqj47DifXg-14" edge="1">
          <mxGeometry width="50" height="50" relative="1" as="geometry">
            <mxPoint x="280" y="200" as="sourcePoint" />
            <mxPoint x="280" y="320" as="targetPoint" />
            <Array as="points">
              <mxPoint x="280" y="210" />
              <mxPoint x="280" y="210" />
            </Array>
          </mxGeometry>
        </mxCell>
        <mxCell id="NcC6NG_0m3Hqj47DifXg-14" value="&lt;div&gt;Elenco Categorie&lt;/div&gt;" style="rounded=0;whiteSpace=wrap;html=1;fillColor=#e1d5e7;strokeColor=#9673a6;" parent="1" vertex="1">
          <mxGeometry x="220" y="220" width="120" height="60" as="geometry" />
        </mxCell>
        <mxCell id="NcC6NG_0m3Hqj47DifXg-17" value="" style="endArrow=none;html=1;rounded=0;edgeStyle=orthogonalEdgeStyle;" parent="1" source="NcC6NG_0m3Hqj47DifXg-10" target="NcC6NG_0m3Hqj47DifXg-16" edge="1">
          <mxGeometry width="50" height="50" relative="1" as="geometry">
            <mxPoint x="1150" y="245" as="sourcePoint" />
            <mxPoint x="1250" y="460" as="targetPoint" />
            <Array as="points" />
          </mxGeometry>
        </mxCell>
        <mxCell id="NcC6NG_0m3Hqj47DifXg-16" value="Ã giÃ  loggato?" style="text;strokeColor=none;fillColor=none;align=left;verticalAlign=middle;spacingLeft=4;spacingRight=4;overflow=hidden;points=[[0,0.5],[1,0.5]];portConstraint=eastwest;rotatable=0;whiteSpace=wrap;html=1;fontColor=#FF0808;" parent="1" vertex="1">
          <mxGeometry x="1270" y="235" width="90" height="20" as="geometry" />
        </mxCell>
        <mxCell id="NcC6NG_0m3Hqj47DifXg-19" value="" style="endArrow=none;html=1;rounded=0;edgeStyle=orthogonalEdgeStyle;" parent="1" source="NcC6NG_0m3Hqj47DifXg-10" target="NcC6NG_0m3Hqj47DifXg-18" edge="1">
          <mxGeometry width="50" height="50" relative="1" as="geometry">
            <mxPoint x="1090" y="245" as="sourcePoint" />
            <mxPoint x="1010" y="340" as="targetPoint" />
            <Array as="points" />
          </mxGeometry>
        </mxCell>
        <mxCell id="NcC6NG_0m3Hqj47DifXg-18" value="NON Ã¨ loggato?" style="text;strokeColor=none;fillColor=none;align=left;verticalAlign=middle;spacingLeft=4;spacingRight=4;overflow=hidden;points=[[0,0.5],[1,0.5]];portConstraint=eastwest;rotatable=0;whiteSpace=wrap;html=1;fontColor=#FF0808;" parent="1" vertex="1">
          <mxGeometry x="1022.5" y="235" width="100" height="20" as="geometry" />
        </mxCell>
        <mxCell id="NcC6NG_0m3Hqj47DifXg-20" value="" style="endArrow=classic;html=1;rounded=0;edgeStyle=orthogonalEdgeStyle;" parent="1" source="NcC6NG_0m3Hqj47DifXg-16" target="8zPGC6kLLm4aPPDFNiIK-26" edge="1">
          <mxGeometry width="50" height="50" relative="1" as="geometry">
            <mxPoint x="1220" y="285" as="sourcePoint" />
            <mxPoint x="1315" y="620" as="targetPoint" />
            <Array as="points">
              <mxPoint x="1380" y="245" />
              <mxPoint x="1380" y="440" />
              <mxPoint x="1300" y="440" />
            </Array>
          </mxGeometry>
        </mxCell>
        <mxCell id="NcC6NG_0m3Hqj47DifXg-23" value="" style="endArrow=none;html=1;rounded=0;edgeStyle=orthogonalEdgeStyle;" parent="1" source="8zPGC6kLLm4aPPDFNiIK-19" target="NcC6NG_0m3Hqj47DifXg-22" edge="1">
          <mxGeometry width="50" height="50" relative="1" as="geometry">
            <mxPoint x="1010" y="400" as="sourcePoint" />
            <mxPoint x="1010" y="460" as="targetPoint" />
            <Array as="points">
              <mxPoint x="960" y="410" />
              <mxPoint x="960" y="410" />
            </Array>
          </mxGeometry>
        </mxCell>
        <mxCell id="NcC6NG_0m3Hqj47DifXg-22" value="&lt;font color=&quot;#0080ff&quot;&gt;NON sei registrato?&lt;/font&gt;" style="text;strokeColor=none;fillColor=none;align=left;verticalAlign=middle;spacingLeft=4;spacingRight=4;overflow=hidden;points=[[0,0.5],[1,0.5]];portConstraint=eastwest;rotatable=0;whiteSpace=wrap;html=1;fontColor=#FF0808;" parent="1" vertex="1">
          <mxGeometry x="897.5" y="460" width="125" height="20" as="geometry" />
        </mxCell>
        <mxCell id="NcC6NG_0m3Hqj47DifXg-24" value="" style="endArrow=classic;html=1;rounded=0;edgeStyle=orthogonalEdgeStyle;" parent="1" source="NcC6NG_0m3Hqj47DifXg-27" target="8zPGC6kLLm4aPPDFNiIK-26" edge="1">
          <mxGeometry width="50" height="50" relative="1" as="geometry">
            <mxPoint x="1060" y="470" as="sourcePoint" />
            <mxPoint x="1250.0588235294117" y="620" as="targetPoint" />
            <Array as="points">
              <mxPoint x="1250" y="370" />
            </Array>
          </mxGeometry>
        </mxCell>
        <mxCell id="NcC6NG_0m3Hqj47DifXg-28" value="" style="endArrow=none;html=1;rounded=0;edgeStyle=orthogonalEdgeStyle;" parent="1" source="8zPGC6kLLm4aPPDFNiIK-19" target="NcC6NG_0m3Hqj47DifXg-27" edge="1">
          <mxGeometry width="50" height="50" relative="1" as="geometry">
            <mxPoint x="1070" y="370" as="sourcePoint" />
            <mxPoint x="1270" y="520" as="targetPoint" />
            <Array as="points" />
          </mxGeometry>
        </mxCell>
        <mxCell id="NcC6NG_0m3Hqj47DifXg-27" value="Credenziali corrette?" style="text;strokeColor=none;fillColor=none;align=left;verticalAlign=middle;spacingLeft=4;spacingRight=4;overflow=hidden;points=[[0,0.5],[1,0.5]];portConstraint=eastwest;rotatable=0;whiteSpace=wrap;html=1;fontColor=#FF0808;" parent="1" vertex="1">
          <mxGeometry x="1090" y="362.5" width="130" height="15" as="geometry" />
        </mxCell>
        <mxCell id="NcC6NG_0m3Hqj47DifXg-31" value="Credenziali errate?" style="text;strokeColor=none;fillColor=none;align=left;verticalAlign=middle;spacingLeft=4;spacingRight=4;overflow=hidden;points=[[0,0.5],[1,0.5]];portConstraint=eastwest;rotatable=0;whiteSpace=wrap;html=1;fontColor=#FF0808;" parent="1" vertex="1">
          <mxGeometry x="1090" y="342.5" width="120" height="15" as="geometry" />
        </mxCell>
        <mxCell id="NcC6NG_0m3Hqj47DifXg-32" value="" style="endArrow=none;html=1;rounded=0;edgeStyle=orthogonalEdgeStyle;" parent="1" source="8zPGC6kLLm4aPPDFNiIK-19" target="NcC6NG_0m3Hqj47DifXg-31" edge="1">
          <mxGeometry width="50" height="50" relative="1" as="geometry">
            <mxPoint x="1080" y="400" as="sourcePoint" />
            <mxPoint x="1130" y="400" as="targetPoint" />
            <Array as="points">
              <mxPoint x="1080" y="350" />
              <mxPoint x="1080" y="350" />
            </Array>
          </mxGeometry>
        </mxCell>
        <mxCell id="NcC6NG_0m3Hqj47DifXg-33" value="" style="endArrow=classic;html=1;rounded=0;edgeStyle=orthogonalEdgeStyle;" parent="1" source="NcC6NG_0m3Hqj47DifXg-31" target="8zPGC6kLLm4aPPDFNiIK-19" edge="1">
          <mxGeometry width="50" height="50" relative="1" as="geometry">
            <mxPoint x="1170" y="450" as="sourcePoint" />
            <mxPoint x="1280" y="340" as="targetPoint" />
            <Array as="points">
              <mxPoint x="1220" y="350" />
              <mxPoint x="1220" y="320" />
              <mxPoint x="1020" y="320" />
            </Array>
          </mxGeometry>
        </mxCell>
        <mxCell id="NcC6NG_0m3Hqj47DifXg-35" value="" style="endArrow=none;html=1;rounded=0;edgeStyle=orthogonalEdgeStyle;" parent="1" source="8zPGC6kLLm4aPPDFNiIK-27" target="NcC6NG_0m3Hqj47DifXg-34" edge="1">
          <mxGeometry width="50" height="50" relative="1" as="geometry">
            <mxPoint x="910" y="660" as="sourcePoint" />
            <mxPoint x="1241" y="650" as="targetPoint" />
            <Array as="points">
              <mxPoint x="960" y="650" />
            </Array>
          </mxGeometry>
        </mxCell>
        <mxCell id="NcC6NG_0m3Hqj47DifXg-34" value="&lt;div&gt;Registrati&lt;/div&gt;" style="text;strokeColor=none;fillColor=none;align=left;verticalAlign=middle;spacingLeft=4;spacingRight=4;overflow=hidden;points=[[0,0.5],[1,0.5]];portConstraint=eastwest;rotatable=0;whiteSpace=wrap;html=1;fontColor=#0080FF;" parent="1" vertex="1">
          <mxGeometry x="1030" y="637.5" width="70" height="25" as="geometry" />
        </mxCell>
        <mxCell id="NcC6NG_0m3Hqj47DifXg-37" value="" style="endArrow=none;html=1;rounded=0;" parent="1" source="8zPGC6kLLm4aPPDFNiIK-16" target="NcC6NG_0m3Hqj47DifXg-36" edge="1">
          <mxGeometry width="50" height="50" relative="1" as="geometry">
            <mxPoint x="830" y="380" as="sourcePoint" />
            <mxPoint x="830" y="450" as="targetPoint" />
          </mxGeometry>
        </mxCell>
        <mxCell id="NcC6NG_0m3Hqj47DifXg-36" value="&lt;font color=&quot;#0080ff&quot;&gt;Blocco Azienda X&lt;/font&gt;" style="text;strokeColor=none;fillColor=none;align=left;verticalAlign=middle;spacingLeft=4;spacingRight=4;overflow=hidden;points=[[0,0.5],[1,0.5]];portConstraint=eastwest;rotatable=0;whiteSpace=wrap;html=1;" parent="1" vertex="1">
          <mxGeometry x="755" y="420" width="110" height="20" as="geometry" />
        </mxCell>
        <mxCell id="NcC6NG_0m3Hqj47DifXg-39" value="" style="endArrow=none;html=1;rounded=0;edgeStyle=orthogonalEdgeStyle;" parent="1" source="8zPGC6kLLm4aPPDFNiIK-14" target="NcC6NG_0m3Hqj47DifXg-38" edge="1">
          <mxGeometry width="50" height="50" relative="1" as="geometry">
            <mxPoint x="580" y="350" as="sourcePoint" />
            <mxPoint x="500" y="480" as="targetPoint" />
            <Array as="points">
              <mxPoint x="490" y="350" />
            </Array>
          </mxGeometry>
        </mxCell>
        <mxCell id="NcC6NG_0m3Hqj47DifXg-38" value="&lt;font color=&quot;#0080ff&quot;&gt;Coupon&lt;br&gt;&lt;/font&gt;" style="text;strokeColor=none;fillColor=none;align=left;verticalAlign=middle;spacingLeft=4;spacingRight=4;overflow=hidden;points=[[0,0.5],[1,0.5]];portConstraint=eastwest;rotatable=0;whiteSpace=wrap;html=1;" parent="1" vertex="1">
          <mxGeometry x="460" y="390" width="60" height="20" as="geometry" />
        </mxCell>
        <mxCell id="NcC6NG_0m3Hqj47DifXg-83" value="&lt;font color=&quot;#0080ff&quot;&gt;Password dimenticata?&lt;br&gt;&lt;/font&gt;" style="text;strokeColor=none;fillColor=none;align=left;verticalAlign=middle;spacingLeft=4;spacingRight=4;overflow=hidden;points=[[0,0.5],[1,0.5]];portConstraint=eastwest;rotatable=0;whiteSpace=wrap;html=1;fontColor=#FF0808;" parent="1" vertex="1">
          <mxGeometry x="1090" y="420" width="140" height="20" as="geometry" />
        </mxCell>
        <mxCell id="NcC6NG_0m3Hqj47DifXg-84" value="" style="edgeStyle=segmentEdgeStyle;endArrow=none;html=1;curved=0;rounded=0;endSize=8;startSize=8;sourcePerimeterSpacing=0;targetPerimeterSpacing=0;" parent="1" source="8zPGC6kLLm4aPPDFNiIK-19" target="NcC6NG_0m3Hqj47DifXg-83" edge="1">
          <mxGeometry width="100" relative="1" as="geometry">
            <mxPoint x="1060" y="420" as="sourcePoint" />
            <mxPoint x="1160" y="430" as="targetPoint" />
            <Array as="points">
              <mxPoint x="1160" y="390" />
            </Array>
          </mxGeometry>
        </mxCell>
        <mxCell id="NcC6NG_0m3Hqj47DifXg-85" value="Form Password dimenticata" style="rounded=0;whiteSpace=wrap;html=1;fillColor=#e1d5e7;strokeColor=#9673a6;" parent="1" vertex="1">
          <mxGeometry x="1100" y="520" width="120" height="60" as="geometry" />
        </mxCell>
        <mxCell id="NcC6NG_0m3Hqj47DifXg-86" value="" style="edgeStyle=segmentEdgeStyle;endArrow=classic;html=1;curved=0;rounded=0;endSize=8;startSize=8;sourcePerimeterSpacing=0;targetPerimeterSpacing=0;" parent="1" source="NcC6NG_0m3Hqj47DifXg-91" target="NcC6NG_0m3Hqj47DifXg-85" edge="1">
          <mxGeometry width="100" relative="1" as="geometry">
            <mxPoint x="1100" y="470" as="sourcePoint" />
            <mxPoint x="1200" y="510" as="targetPoint" />
            <Array as="points">
              <mxPoint x="1160" y="490" />
              <mxPoint x="1160" y="490" />
            </Array>
          </mxGeometry>
        </mxCell>
        <mxCell id="NcC6NG_0m3Hqj47DifXg-88" value="&lt;font color=&quot;#0080ff&quot;&gt;Reset&lt;br&gt;&lt;/font&gt;" style="text;strokeColor=none;fillColor=none;align=left;verticalAlign=middle;spacingLeft=4;spacingRight=4;overflow=hidden;points=[[0,0.5],[1,0.5]];portConstraint=eastwest;rotatable=0;whiteSpace=wrap;html=1;fontColor=#FF0808;" parent="1" vertex="1">
          <mxGeometry x="1080" y="590" width="50" height="20" as="geometry" />
        </mxCell>
        <mxCell id="NcC6NG_0m3Hqj47DifXg-89" value="" style="edgeStyle=segmentEdgeStyle;endArrow=none;html=1;curved=0;rounded=0;endSize=8;startSize=8;sourcePerimeterSpacing=0;targetPerimeterSpacing=0;" parent="1" source="NcC6NG_0m3Hqj47DifXg-85" target="NcC6NG_0m3Hqj47DifXg-88" edge="1">
          <mxGeometry width="100" relative="1" as="geometry">
            <mxPoint x="1060" y="620" as="sourcePoint" />
            <mxPoint x="1160" y="660" as="targetPoint" />
            <Array as="points">
              <mxPoint x="1160" y="600" />
            </Array>
          </mxGeometry>
        </mxCell>
        <mxCell id="NcC6NG_0m3Hqj47DifXg-90" value="" style="edgeStyle=segmentEdgeStyle;endArrow=classic;html=1;curved=0;rounded=0;endSize=8;startSize=8;sourcePerimeterSpacing=0;targetPerimeterSpacing=0;" parent="1" source="NcC6NG_0m3Hqj47DifXg-88" target="8zPGC6kLLm4aPPDFNiIK-19" edge="1">
          <mxGeometry width="100" relative="1" as="geometry">
            <mxPoint x="1090" y="650" as="sourcePoint" />
            <mxPoint x="1060" y="460" as="targetPoint" />
            <Array as="points">
              <mxPoint x="1030" y="600" />
            </Array>
          </mxGeometry>
        </mxCell>
        <mxCell id="NcC6NG_0m3Hqj47DifXg-92" value="" style="edgeStyle=segmentEdgeStyle;endArrow=none;html=1;curved=0;rounded=0;endSize=8;startSize=8;sourcePerimeterSpacing=0;targetPerimeterSpacing=0;" parent="1" source="NcC6NG_0m3Hqj47DifXg-83" target="NcC6NG_0m3Hqj47DifXg-91" edge="1">
          <mxGeometry width="100" relative="1" as="geometry">
            <mxPoint x="1160" y="440" as="sourcePoint" />
            <mxPoint x="1160" y="520" as="targetPoint" />
            <Array as="points" />
          </mxGeometry>
        </mxCell>
        <mxCell id="NcC6NG_0m3Hqj47DifXg-91" value="Mail con link al form" style="text;strokeColor=none;fillColor=none;align=left;verticalAlign=middle;spacingLeft=4;spacingRight=4;overflow=hidden;points=[[0,0.5],[1,0.5]];portConstraint=eastwest;rotatable=0;whiteSpace=wrap;html=1;fontColor=#FF0808;" parent="1" vertex="1">
          <mxGeometry x="1100.5" y="470" width="119" height="20" as="geometry" />
        </mxCell>
        <mxCell id="NcC6NG_0m3Hqj47DifXg-134" value="" style="endArrow=none;html=1;rounded=0;edgeStyle=orthogonalEdgeStyle;" parent="1" source="8zPGC6kLLm4aPPDFNiIK-17" target="NcC6NG_0m3Hqj47DifXg-133" edge="1">
          <mxGeometry width="50" height="50" relative="1" as="geometry">
            <mxPoint x="750" y="510" as="sourcePoint" />
            <mxPoint x="510" y="510" as="targetPoint" />
          </mxGeometry>
        </mxCell>
        <mxCell id="NcC6NG_0m3Hqj47DifXg-133" value="&lt;font color=&quot;#0080ff&quot;&gt;Coupon&lt;br&gt;&lt;/font&gt;" style="text;strokeColor=none;fillColor=none;align=left;verticalAlign=middle;spacingLeft=4;spacingRight=4;overflow=hidden;points=[[0,0.5],[1,0.5]];portConstraint=eastwest;rotatable=0;whiteSpace=wrap;html=1;" parent="1" vertex="1">
          <mxGeometry x="600" y="495" width="60" height="30" as="geometry" />
        </mxCell>
        <mxCell id="NcC6NG_0m3Hqj47DifXg-136" value="" style="endArrow=none;html=1;rounded=0;movable=1;resizable=1;rotatable=1;deletable=1;editable=1;locked=0;connectable=1;edgeStyle=orthogonalEdgeStyle;" parent="1" source="NcC6NG_0m3Hqj47DifXg-14" target="NcC6NG_0m3Hqj47DifXg-135" edge="1">
          <mxGeometry width="50" height="50" relative="1" as="geometry">
            <mxPoint x="280" y="280" as="sourcePoint" />
            <mxPoint x="280" y="350" as="targetPoint" />
            <Array as="points">
              <mxPoint x="280" y="300" />
              <mxPoint x="280" y="300" />
            </Array>
          </mxGeometry>
        </mxCell>
        <mxCell id="NcC6NG_0m3Hqj47DifXg-135" value="&lt;div&gt;Categoria&lt;/div&gt;" style="text;strokeColor=none;fillColor=none;align=left;verticalAlign=middle;spacingLeft=4;spacingRight=4;overflow=hidden;points=[[0,0.5],[1,0.5]];portConstraint=eastwest;rotatable=0;whiteSpace=wrap;html=1;fontColor=#0080ff;" parent="1" vertex="1">
          <mxGeometry x="245.06" y="300" width="70" height="20" as="geometry" />
        </mxCell>
        <mxCell id="NcC6NG_0m3Hqj47DifXg-138" value="" style="endArrow=none;html=1;rounded=0;edgeStyle=orthogonalEdgeStyle;" parent="1" source="8zPGC6kLLm4aPPDFNiIK-15" target="NcC6NG_0m3Hqj47DifXg-137" edge="1">
          <mxGeometry width="50" height="50" relative="1" as="geometry">
            <mxPoint x="330" y="410" as="sourcePoint" />
            <mxPoint x="390" y="490" as="targetPoint" />
            <Array as="points">
              <mxPoint x="330" y="450" />
              <mxPoint x="330" y="450" />
            </Array>
          </mxGeometry>
        </mxCell>
        <mxCell id="NcC6NG_0m3Hqj47DifXg-137" value="&lt;font color=&quot;#0080ff&quot;&gt;Coupon&lt;br&gt;&lt;/font&gt;" style="text;strokeColor=none;fillColor=none;align=left;verticalAlign=middle;spacingLeft=4;spacingRight=4;overflow=hidden;points=[[0,0.5],[1,0.5]];portConstraint=eastwest;rotatable=0;whiteSpace=wrap;html=1;" parent="1" vertex="1">
          <mxGeometry x="300" y="470" width="60" height="20" as="geometry" />
        </mxCell>
        <mxCell id="NU3KpsRYySIQvtl1-evu-1" value="&lt;font color=&quot;#0080ff&quot;&gt;Acquisisci&lt;/font&gt;" style="text;strokeColor=none;fillColor=none;align=left;verticalAlign=middle;spacingLeft=4;spacingRight=4;overflow=hidden;points=[[0,0.5],[1,0.5]];portConstraint=eastwest;rotatable=0;whiteSpace=wrap;html=1;" vertex="1" parent="1">
          <mxGeometry x="415" y="587.5" width="70" height="22.5" as="geometry" />
        </mxCell>
        <mxCell id="NU3KpsRYySIQvtl1-evu-2" value="" style="edgeStyle=segmentEdgeStyle;endArrow=none;html=1;curved=0;rounded=0;endSize=8;startSize=8;sourcePerimeterSpacing=0;targetPerimeterSpacing=0;" edge="1" parent="1" source="8zPGC6kLLm4aPPDFNiIK-18" target="NU3KpsRYySIQvtl1-evu-1">
          <mxGeometry width="100" relative="1" as="geometry">
            <mxPoint x="350" y="560" as="sourcePoint" />
            <mxPoint x="450" y="600" as="targetPoint" />
            <Array as="points">
              <mxPoint x="370" y="530" />
              <mxPoint x="370" y="600" />
            </Array>
          </mxGeometry>
        </mxCell>
        <mxCell id="NU3KpsRYySIQvtl1-evu-4" value="" style="edgeStyle=segmentEdgeStyle;endArrow=classic;html=1;curved=0;rounded=0;endSize=8;startSize=8;sourcePerimeterSpacing=0;targetPerimeterSpacing=0;" edge="1" parent="1" source="NU3KpsRYySIQvtl1-evu-1" target="8zPGC6kLLm4aPPDFNiIK-18">
          <mxGeometry width="100" relative="1" as="geometry">
            <mxPoint x="460" y="560" as="sourcePoint" />
            <mxPoint x="560" y="600" as="targetPoint" />
            <Array as="points">
              <mxPoint x="530" y="600" />
              <mxPoint x="530" y="530" />
            </Array>
          </mxGeometry>
        </mxCell>
        <mxCell id="NU3KpsRYySIQvtl1-evu-9" value="" style="edgeStyle=segmentEdgeStyle;endArrow=classic;html=1;curved=0;rounded=0;endSize=8;startSize=8;sourcePerimeterSpacing=0;targetPerimeterSpacing=0;fillColor=#d5e8d4;strokeColor=#82b366;" edge="1" parent="1" source="8zPGC6kLLm4aPPDFNiIK-15" target="8zPGC6kLLm4aPPDFNiIK-1">
          <mxGeometry width="100" relative="1" as="geometry">
            <mxPoint x="420" y="240" as="sourcePoint" />
            <mxPoint x="520" y="280" as="targetPoint" />
            <Array as="points">
              <mxPoint x="350" y="140" />
            </Array>
          </mxGeometry>
        </mxCell>
        <mxCell id="NU3KpsRYySIQvtl1-evu-11" value="" style="edgeStyle=segmentEdgeStyle;endArrow=classic;html=1;curved=0;rounded=0;endSize=8;startSize=8;sourcePerimeterSpacing=0;targetPerimeterSpacing=0;fillColor=#d5e8d4;strokeColor=#82b366;" edge="1" parent="1" source="8zPGC6kLLm4aPPDFNiIK-18" target="8zPGC6kLLm4aPPDFNiIK-1">
          <mxGeometry width="100" relative="1" as="geometry">
            <mxPoint x="400" y="340" as="sourcePoint" />
            <mxPoint x="500" y="380" as="targetPoint" />
            <Array as="points">
              <mxPoint x="450" y="150" />
            </Array>
          </mxGeometry>
        </mxCell>
        <mxCell id="NU3KpsRYySIQvtl1-evu-12" value="" style="edgeStyle=segmentEdgeStyle;endArrow=classic;html=1;curved=0;rounded=0;endSize=8;startSize=8;sourcePerimeterSpacing=0;targetPerimeterSpacing=0;fillColor=#d5e8d4;strokeColor=#82b366;" edge="1" parent="1" source="8zPGC6kLLm4aPPDFNiIK-14" target="8zPGC6kLLm4aPPDFNiIK-1">
          <mxGeometry width="100" relative="1" as="geometry">
            <mxPoint x="470" y="260" as="sourcePoint" />
            <mxPoint x="570" y="300" as="targetPoint" />
            <Array as="points">
              <mxPoint x="600" y="160" />
            </Array>
          </mxGeometry>
        </mxCell>
        <mxCell id="NU3KpsRYySIQvtl1-evu-13" value="" style="edgeStyle=segmentEdgeStyle;endArrow=classic;html=1;curved=0;rounded=0;endSize=8;startSize=8;sourcePerimeterSpacing=0;targetPerimeterSpacing=0;fillColor=#d5e8d4;strokeColor=#82b366;" edge="1" parent="1" source="8zPGC6kLLm4aPPDFNiIK-16" target="8zPGC6kLLm4aPPDFNiIK-1">
          <mxGeometry width="100" relative="1" as="geometry">
            <mxPoint x="620" y="400" as="sourcePoint" />
            <mxPoint x="720" y="440" as="targetPoint" />
            <Array as="points">
              <mxPoint x="770" y="250" />
              <mxPoint x="770" y="250" />
            </Array>
          </mxGeometry>
        </mxCell>
        <mxCell id="NU3KpsRYySIQvtl1-evu-14" value="" style="edgeStyle=segmentEdgeStyle;endArrow=classic;html=1;curved=0;rounded=0;endSize=8;startSize=8;sourcePerimeterSpacing=0;targetPerimeterSpacing=0;fillColor=#d5e8d4;strokeColor=#82b366;" edge="1" parent="1" source="8zPGC6kLLm4aPPDFNiIK-17" target="8zPGC6kLLm4aPPDFNiIK-1">
          <mxGeometry width="100" relative="1" as="geometry">
            <mxPoint x="740" y="580" as="sourcePoint" />
            <mxPoint x="840" y="620" as="targetPoint" />
            <Array as="points">
              <mxPoint x="880" y="510" />
              <mxPoint x="880" y="150" />
            </Array>
          </mxGeometry>
        </mxCell>
        <mxCell id="NU3KpsRYySIQvtl1-evu-15" value="" style="edgeStyle=segmentEdgeStyle;endArrow=classic;html=1;curved=0;rounded=0;endSize=8;startSize=8;sourcePerimeterSpacing=0;targetPerimeterSpacing=0;fillColor=#d5e8d4;strokeColor=#82b366;" edge="1" parent="1" source="8zPGC6kLLm4aPPDFNiIK-20" target="8zPGC6kLLm4aPPDFNiIK-1">
          <mxGeometry width="100" relative="1" as="geometry">
            <mxPoint x="1270" y="180" as="sourcePoint" />
            <mxPoint x="1370" y="220" as="targetPoint" />
            <Array as="points">
              <mxPoint x="1400" y="140" />
            </Array>
          </mxGeometry>
        </mxCell>
        <mxCell id="NU3KpsRYySIQvtl1-evu-16" value="" style="edgeStyle=segmentEdgeStyle;endArrow=classic;html=1;curved=0;rounded=0;endSize=8;startSize=8;sourcePerimeterSpacing=0;targetPerimeterSpacing=0;fillColor=#d5e8d4;strokeColor=#82b366;" edge="1" parent="1" source="8zPGC6kLLm4aPPDFNiIK-19" target="8zPGC6kLLm4aPPDFNiIK-1">
          <mxGeometry width="100" relative="1" as="geometry">
            <mxPoint x="880" y="210" as="sourcePoint" />
            <mxPoint x="980" y="250" as="targetPoint" />
            <Array as="points">
              <mxPoint x="930" y="160" />
            </Array>
          </mxGeometry>
        </mxCell>
        <mxCell id="NU3KpsRYySIQvtl1-evu-17" value="" style="edgeStyle=segmentEdgeStyle;endArrow=classic;html=1;curved=0;rounded=0;endSize=8;startSize=8;sourcePerimeterSpacing=0;targetPerimeterSpacing=0;fillColor=#d5e8d4;strokeColor=#82b366;" edge="1" parent="1" source="8zPGC6kLLm4aPPDFNiIK-27" target="8zPGC6kLLm4aPPDFNiIK-1">
          <mxGeometry width="100" relative="1" as="geometry">
            <mxPoint x="850" y="400" as="sourcePoint" />
            <mxPoint x="950" y="440" as="targetPoint" />
            <Array as="points">
              <mxPoint x="900" y="200" />
              <mxPoint x="850" y="200" />
            </Array>
          </mxGeometry>
        </mxCell>
        <mxCell id="NU3KpsRYySIQvtl1-evu-29" value="" style="edgeStyle=segmentEdgeStyle;endArrow=classic;html=1;curved=0;rounded=0;endSize=8;startSize=8;sourcePerimeterSpacing=0;targetPerimeterSpacing=0;fillColor=#d5e8d4;strokeColor=#82b366;" edge="1" parent="1" source="8zPGC6kLLm4aPPDFNiIK-26" target="8zPGC6kLLm4aPPDFNiIK-1">
          <mxGeometry width="100" relative="1" as="geometry">
            <mxPoint x="1520.0588235294117" y="620" as="sourcePoint" />
            <mxPoint x="1490" y="450" as="targetPoint" />
            <Array as="points">
              <mxPoint x="1270" y="600" />
              <mxPoint x="1520" y="600" />
              <mxPoint x="1520" y="100" />
              <mxPoint x="800" y="100" />
            </Array>
          </mxGeometry>
        </mxCell>
        <mxCell id="NcC6NG_0m3Hqj47DifXg-50" value="&lt;div&gt;Profilo LV. 3&lt;br&gt;&lt;/div&gt;" style="rounded=0;whiteSpace=wrap;html=1;fillColor=#e1d5e7;strokeColor=#9673a6;" parent="1" vertex="1">
          <mxGeometry x="1110.06" y="1100" width="120" height="60" as="geometry" />
        </mxCell>
        <mxCell id="NcC6NG_0m3Hqj47DifXg-51" value="&lt;div&gt;DB Utenti registrati&lt;/div&gt;&lt;div&gt;&quot;sempre aggiornato&quot;&lt;br&gt;&lt;/div&gt;" style="rounded=0;whiteSpace=wrap;html=1;fillColor=#e1d5e7;strokeColor=#9673a6;" parent="1" vertex="1">
          <mxGeometry x="1095" y="1254" width="120" height="60" as="geometry" />
        </mxCell>
        <mxCell id="NcC6NG_0m3Hqj47DifXg-52" value="&lt;div&gt;Lista Statistiche&lt;/div&gt;" style="rounded=0;whiteSpace=wrap;html=1;fillColor=#e1d5e7;strokeColor=#9673a6;" parent="1" vertex="1">
          <mxGeometry x="1680" y="1254" width="120" height="60" as="geometry" />
        </mxCell>
        <mxCell id="NcC6NG_0m3Hqj47DifXg-53" value="&lt;div&gt;DB Aziende&lt;/div&gt;&lt;div&gt;&quot;sempre aggiornato&quot;&lt;/div&gt;" style="rounded=0;whiteSpace=wrap;html=1;fillColor=#e1d5e7;strokeColor=#9673a6;" parent="1" vertex="1">
          <mxGeometry x="910" y="1260.5" width="120" height="60" as="geometry" />
        </mxCell>
        <mxCell id="NcC6NG_0m3Hqj47DifXg-54" value="&lt;div&gt;DB Promozioni&lt;/div&gt;&lt;div&gt;&quot;sempre aggiornato&quot;&lt;br&gt;&lt;/div&gt;" style="rounded=0;whiteSpace=wrap;html=1;fillColor=#e1d5e7;strokeColor=#9673a6;" parent="1" vertex="1">
          <mxGeometry x="1270" y="1255" width="120" height="60" as="geometry" />
        </mxCell>
        <mxCell id="NcC6NG_0m3Hqj47DifXg-66" value="" style="endArrow=classic;html=1;rounded=0;edgeStyle=orthogonalEdgeStyle;" parent="1" source="NcC6NG_0m3Hqj47DifXg-68" target="NcC6NG_0m3Hqj47DifXg-51" edge="1">
          <mxGeometry width="50" height="50" relative="1" as="geometry">
            <mxPoint x="1104.02" y="1419" as="sourcePoint" />
            <mxPoint x="1155" y="1419" as="targetPoint" />
            <Array as="points">
              <mxPoint x="1205" y="1379" />
            </Array>
          </mxGeometry>
        </mxCell>
        <mxCell id="NcC6NG_0m3Hqj47DifXg-67" value="" style="endArrow=none;html=1;rounded=0;edgeStyle=orthogonalEdgeStyle;" parent="1" source="NcC6NG_0m3Hqj47DifXg-51" target="NcC6NG_0m3Hqj47DifXg-68" edge="1">
          <mxGeometry width="50" height="50" relative="1" as="geometry">
            <mxPoint x="1154.9855172413793" y="1314" as="sourcePoint" />
            <mxPoint x="1295.02" y="1469" as="targetPoint" />
            <Array as="points">
              <mxPoint x="1105" y="1379" />
            </Array>
          </mxGeometry>
        </mxCell>
        <mxCell id="NcC6NG_0m3Hqj47DifXg-68" value="Cancella" style="text;strokeColor=none;fillColor=none;align=left;verticalAlign=middle;spacingLeft=4;spacingRight=4;overflow=hidden;points=[[0,0.5],[1,0.5]];portConstraint=eastwest;rotatable=0;whiteSpace=wrap;html=1;fontColor=#0080FF;" parent="1" vertex="1">
          <mxGeometry x="1125" y="1359" width="60" height="30" as="geometry" />
        </mxCell>
        <mxCell id="NcC6NG_0m3Hqj47DifXg-73" value="Aziende" style="text;strokeColor=none;fillColor=none;align=left;verticalAlign=middle;spacingLeft=4;spacingRight=4;overflow=hidden;points=[[0,0.5],[1,0.5]];portConstraint=eastwest;rotatable=0;whiteSpace=wrap;html=1;fontColor=#0080FF;" parent="1" vertex="1">
          <mxGeometry x="940" y="1210" width="60" height="19" as="geometry" />
        </mxCell>
        <mxCell id="NcC6NG_0m3Hqj47DifXg-75" value="" style="edgeStyle=segmentEdgeStyle;endArrow=none;html=1;curved=0;rounded=0;endSize=8;startSize=8;sourcePerimeterSpacing=0;targetPerimeterSpacing=0;" parent="1" source="NcC6NG_0m3Hqj47DifXg-50" target="NcC6NG_0m3Hqj47DifXg-73" edge="1">
          <mxGeometry width="100" relative="1" as="geometry">
            <mxPoint x="1000" y="1120" as="sourcePoint" />
            <mxPoint x="1100" y="1160" as="targetPoint" />
            <Array as="points" />
          </mxGeometry>
        </mxCell>
        <mxCell id="NcC6NG_0m3Hqj47DifXg-76" value="" style="edgeStyle=segmentEdgeStyle;endArrow=classic;html=1;curved=0;rounded=0;endSize=8;startSize=8;sourcePerimeterSpacing=0;targetPerimeterSpacing=0;" parent="1" source="NcC6NG_0m3Hqj47DifXg-73" target="NcC6NG_0m3Hqj47DifXg-53" edge="1">
          <mxGeometry width="100" relative="1" as="geometry">
            <mxPoint x="940" y="1225.5" as="sourcePoint" />
            <mxPoint x="1040" y="1265.5" as="targetPoint" />
            <Array as="points" />
          </mxGeometry>
        </mxCell>
        <mxCell id="NcC6NG_0m3Hqj47DifXg-77" value="" style="edgeStyle=segmentEdgeStyle;endArrow=none;html=1;curved=0;rounded=0;endSize=8;startSize=8;sourcePerimeterSpacing=0;targetPerimeterSpacing=0;" parent="1" target="NU3KpsRYySIQvtl1-evu-33" edge="1">
          <mxGeometry width="100" relative="1" as="geometry">
            <mxPoint x="1155" y="1159.0000000000002" as="sourcePoint" />
            <mxPoint x="1155" y="1199" as="targetPoint" />
            <Array as="points" />
          </mxGeometry>
        </mxCell>
        <mxCell id="NcC6NG_0m3Hqj47DifXg-78" value="" style="edgeStyle=segmentEdgeStyle;endArrow=classic;html=1;curved=0;rounded=0;endSize=8;startSize=8;sourcePerimeterSpacing=0;targetPerimeterSpacing=0;" parent="1" source="NU3KpsRYySIQvtl1-evu-33" target="NcC6NG_0m3Hqj47DifXg-51" edge="1">
          <mxGeometry width="100" relative="1" as="geometry">
            <mxPoint x="1155" y="1230" as="sourcePoint" />
            <mxPoint x="1295" y="1209" as="targetPoint" />
            <Array as="points" />
          </mxGeometry>
        </mxCell>
        <mxCell id="NcC6NG_0m3Hqj47DifXg-80" value="" style="edgeStyle=segmentEdgeStyle;endArrow=none;html=1;curved=0;rounded=0;endSize=8;startSize=8;sourcePerimeterSpacing=0;targetPerimeterSpacing=0;" parent="1" source="NcC6NG_0m3Hqj47DifXg-50" target="NU3KpsRYySIQvtl1-evu-35" edge="1">
          <mxGeometry width="100" relative="1" as="geometry">
            <mxPoint x="1300" y="1120" as="sourcePoint" />
            <mxPoint x="1740" y="1199" as="targetPoint" />
            <Array as="points">
              <mxPoint x="1740" y="1140" />
            </Array>
          </mxGeometry>
        </mxCell>
        <mxCell id="NcC6NG_0m3Hqj47DifXg-82" value="" style="edgeStyle=segmentEdgeStyle;endArrow=classic;html=1;curved=0;rounded=0;endSize=8;startSize=8;sourcePerimeterSpacing=0;targetPerimeterSpacing=0;" parent="1" source="NU3KpsRYySIQvtl1-evu-35" target="NcC6NG_0m3Hqj47DifXg-52" edge="1">
          <mxGeometry width="100" relative="1" as="geometry">
            <mxPoint x="1740" y="1229" as="sourcePoint" />
            <mxPoint x="1600" y="1245.5" as="targetPoint" />
            <Array as="points">
              <mxPoint x="1740" y="1230" />
              <mxPoint x="1740" y="1230" />
            </Array>
          </mxGeometry>
        </mxCell>
        <mxCell id="NcC6NG_0m3Hqj47DifXg-98" value="" style="edgeStyle=segmentEdgeStyle;endArrow=none;html=1;curved=0;rounded=0;endSize=8;startSize=8;sourcePerimeterSpacing=0;targetPerimeterSpacing=0;" parent="1" source="NcC6NG_0m3Hqj47DifXg-50" target="NU3KpsRYySIQvtl1-evu-34" edge="1">
          <mxGeometry width="100" relative="1" as="geometry">
            <mxPoint x="1200" y="1160" as="sourcePoint" />
            <mxPoint x="1330" y="1199" as="targetPoint" />
            <Array as="points">
              <mxPoint x="1210" y="1180" />
              <mxPoint x="1340" y="1180" />
            </Array>
          </mxGeometry>
        </mxCell>
        <mxCell id="NcC6NG_0m3Hqj47DifXg-99" value="" style="edgeStyle=segmentEdgeStyle;endArrow=classic;html=1;curved=0;rounded=0;endSize=8;startSize=8;sourcePerimeterSpacing=0;targetPerimeterSpacing=0;" parent="1" source="NU3KpsRYySIQvtl1-evu-34" target="NcC6NG_0m3Hqj47DifXg-54" edge="1">
          <mxGeometry width="100" relative="1" as="geometry">
            <mxPoint x="1330" y="1229" as="sourcePoint" />
            <mxPoint x="1380" y="1250" as="targetPoint" />
            <Array as="points" />
          </mxGeometry>
        </mxCell>
        <mxCell id="NcC6NG_0m3Hqj47DifXg-110" value="&lt;font color=&quot;#0080ff&quot;&gt;Crea/Modifica/Cancella&lt;/font&gt;" style="text;html=1;align=center;verticalAlign=middle;resizable=0;points=[];autosize=1;strokeColor=none;fillColor=none;" parent="1" vertex="1">
          <mxGeometry x="1260" y="1359" width="150" height="30" as="geometry" />
        </mxCell>
        <mxCell id="NcC6NG_0m3Hqj47DifXg-111" value="" style="edgeStyle=segmentEdgeStyle;endArrow=none;html=1;curved=0;rounded=0;endSize=8;startSize=8;sourcePerimeterSpacing=0;targetPerimeterSpacing=0;" parent="1" source="NcC6NG_0m3Hqj47DifXg-54" target="NcC6NG_0m3Hqj47DifXg-110" edge="1">
          <mxGeometry width="100" relative="1" as="geometry">
            <mxPoint x="1270" y="1285" as="sourcePoint" />
            <mxPoint x="1190" y="1325" as="targetPoint" />
            <Array as="points">
              <mxPoint x="1240" y="1285" />
              <mxPoint x="1240" y="1375" />
            </Array>
          </mxGeometry>
        </mxCell>
        <mxCell id="NcC6NG_0m3Hqj47DifXg-112" value="" style="edgeStyle=segmentEdgeStyle;endArrow=classic;html=1;curved=0;rounded=0;endSize=8;startSize=8;sourcePerimeterSpacing=0;targetPerimeterSpacing=0;" parent="1" source="NcC6NG_0m3Hqj47DifXg-110" target="NcC6NG_0m3Hqj47DifXg-54" edge="1">
          <mxGeometry width="100" relative="1" as="geometry">
            <mxPoint x="1220" y="1415" as="sourcePoint" />
            <mxPoint x="1390" y="1285" as="targetPoint" />
            <Array as="points">
              <mxPoint x="1420" y="1375" />
              <mxPoint x="1420" y="1285" />
            </Array>
          </mxGeometry>
        </mxCell>
        <mxCell id="NcC6NG_0m3Hqj47DifXg-116" value="&lt;font color=&quot;#0080ff&quot;&gt;Crea/Modifica/Cancella&lt;/font&gt;" style="text;html=1;align=center;verticalAlign=middle;resizable=0;points=[];autosize=1;strokeColor=none;fillColor=none;" parent="1" vertex="1">
          <mxGeometry x="895" y="1360" width="150" height="30" as="geometry" />
        </mxCell>
        <mxCell id="NcC6NG_0m3Hqj47DifXg-118" value="" style="edgeStyle=segmentEdgeStyle;endArrow=classic;html=1;curved=0;rounded=0;endSize=8;startSize=8;sourcePerimeterSpacing=0;targetPerimeterSpacing=0;" parent="1" target="NcC6NG_0m3Hqj47DifXg-53" edge="1">
          <mxGeometry width="100" relative="1" as="geometry">
            <mxPoint x="1050" y="1380.5" as="sourcePoint" />
            <mxPoint x="1030" y="1290.5" as="targetPoint" />
            <Array as="points">
              <mxPoint x="1060" y="1380.5" />
              <mxPoint x="1060" y="1290.5" />
            </Array>
          </mxGeometry>
        </mxCell>
        <mxCell id="NcC6NG_0m3Hqj47DifXg-119" value="&lt;div&gt;DB Aziende&lt;/div&gt;&lt;div&gt;&quot;sempre aggiornato&quot;&lt;/div&gt;" style="rounded=0;whiteSpace=wrap;html=1;fillColor=#e1d5e7;strokeColor=#9673a6;" parent="1" vertex="1">
          <mxGeometry x="1480" y="1254" width="120" height="60" as="geometry" />
        </mxCell>
        <mxCell id="NcC6NG_0m3Hqj47DifXg-120" value="Aziende" style="text;strokeColor=none;fillColor=none;align=left;verticalAlign=middle;spacingLeft=4;spacingRight=4;overflow=hidden;points=[[0,0.5],[1,0.5]];portConstraint=eastwest;rotatable=0;whiteSpace=wrap;html=1;fontColor=#0080FF;" parent="1" vertex="1">
          <mxGeometry x="1510" y="1210" width="60" height="19" as="geometry" />
        </mxCell>
        <mxCell id="NcC6NG_0m3Hqj47DifXg-121" value="" style="edgeStyle=segmentEdgeStyle;endArrow=classic;html=1;curved=0;rounded=0;endSize=8;startSize=8;sourcePerimeterSpacing=0;targetPerimeterSpacing=0;" parent="1" source="NcC6NG_0m3Hqj47DifXg-120" target="NcC6NG_0m3Hqj47DifXg-119" edge="1">
          <mxGeometry width="100" relative="1" as="geometry">
            <mxPoint x="1510" y="1219" as="sourcePoint" />
            <mxPoint x="1610" y="1259" as="targetPoint" />
            <Array as="points" />
          </mxGeometry>
        </mxCell>
        <mxCell id="NcC6NG_0m3Hqj47DifXg-122" value="&lt;font color=&quot;#0080ff&quot;&gt;Crea/Modifica/Cancella&lt;/font&gt;" style="text;html=1;align=center;verticalAlign=middle;resizable=0;points=[];autosize=1;strokeColor=none;fillColor=none;" parent="1" vertex="1">
          <mxGeometry x="1470" y="1358" width="150" height="30" as="geometry" />
        </mxCell>
        <mxCell id="NcC6NG_0m3Hqj47DifXg-123" value="" style="edgeStyle=segmentEdgeStyle;endArrow=none;html=1;curved=0;rounded=0;endSize=8;startSize=8;sourcePerimeterSpacing=0;targetPerimeterSpacing=0;" parent="1" source="NcC6NG_0m3Hqj47DifXg-119" target="NcC6NG_0m3Hqj47DifXg-122" edge="1">
          <mxGeometry width="100" relative="1" as="geometry">
            <mxPoint x="1480" y="1284" as="sourcePoint" />
            <mxPoint x="1400" y="1324" as="targetPoint" />
            <Array as="points">
              <mxPoint x="1450" y="1284" />
              <mxPoint x="1450" y="1374" />
            </Array>
          </mxGeometry>
        </mxCell>
        <mxCell id="NcC6NG_0m3Hqj47DifXg-124" value="" style="edgeStyle=segmentEdgeStyle;endArrow=classic;html=1;curved=0;rounded=0;endSize=8;startSize=8;sourcePerimeterSpacing=0;targetPerimeterSpacing=0;" parent="1" source="NcC6NG_0m3Hqj47DifXg-122" target="NcC6NG_0m3Hqj47DifXg-119" edge="1">
          <mxGeometry width="100" relative="1" as="geometry">
            <mxPoint x="1430" y="1414" as="sourcePoint" />
            <mxPoint x="1600" y="1284" as="targetPoint" />
            <Array as="points">
              <mxPoint x="1630" y="1374" />
              <mxPoint x="1630" y="1284" />
            </Array>
          </mxGeometry>
        </mxCell>
        <mxCell id="NcC6NG_0m3Hqj47DifXg-127" value="" style="edgeStyle=segmentEdgeStyle;endArrow=none;html=1;curved=0;rounded=0;endSize=8;startSize=8;sourcePerimeterSpacing=0;targetPerimeterSpacing=0;" parent="1" source="NcC6NG_0m3Hqj47DifXg-50" target="NcC6NG_0m3Hqj47DifXg-120" edge="1">
          <mxGeometry width="100" relative="1" as="geometry">
            <mxPoint x="1360" y="1140" as="sourcePoint" />
            <mxPoint x="1460" y="1180" as="targetPoint" />
            <Array as="points">
              <mxPoint x="1540" y="1150" />
            </Array>
          </mxGeometry>
        </mxCell>
        <mxCell id="NcC6NG_0m3Hqj47DifXg-128" value="" style="edgeStyle=segmentEdgeStyle;endArrow=none;html=1;curved=0;rounded=0;endSize=8;startSize=8;sourcePerimeterSpacing=0;targetPerimeterSpacing=0;" parent="1" source="NcC6NG_0m3Hqj47DifXg-50" target="NU3KpsRYySIQvtl1-evu-36" edge="1">
          <mxGeometry width="100" relative="1" as="geometry">
            <mxPoint x="1340" y="1050" as="sourcePoint" />
            <mxPoint x="1940" y="1199" as="targetPoint" />
            <Array as="points">
              <mxPoint x="1390" y="1130" />
              <mxPoint x="1390" y="1090" />
              <mxPoint x="1940" y="1090" />
            </Array>
          </mxGeometry>
        </mxCell>
        <mxCell id="NcC6NG_0m3Hqj47DifXg-131" value="Gestione FAQ" style="rounded=0;whiteSpace=wrap;html=1;fillColor=#e1d5e7;strokeColor=#9673a6;" parent="1" vertex="1">
          <mxGeometry x="1880" y="1255" width="120" height="60" as="geometry" />
        </mxCell>
        <mxCell id="NcC6NG_0m3Hqj47DifXg-132" value="" style="edgeStyle=segmentEdgeStyle;endArrow=classic;html=1;curved=0;rounded=0;endSize=8;startSize=8;sourcePerimeterSpacing=0;targetPerimeterSpacing=0;" parent="1" source="NU3KpsRYySIQvtl1-evu-36" target="NcC6NG_0m3Hqj47DifXg-131" edge="1">
          <mxGeometry width="100" relative="1" as="geometry">
            <mxPoint x="1940" y="1229" as="sourcePoint" />
            <mxPoint x="2010" y="1220" as="targetPoint" />
            <Array as="points" />
          </mxGeometry>
        </mxCell>
        <mxCell id="8zPGC6kLLm4aPPDFNiIK-26" value="&lt;div&gt;Profilo LV.1&lt;/div&gt;" style="rounded=0;whiteSpace=wrap;html=1;fillColor=#e1d5e7;strokeColor=#9673a6;" parent="1" vertex="1">
          <mxGeometry x="1210" y="620" width="120" height="60" as="geometry" />
        </mxCell>
        <mxCell id="NcC6NG_0m3Hqj47DifXg-45" value="&lt;div&gt;Profilo LV. 2&lt;/div&gt;" style="rounded=0;whiteSpace=wrap;html=1;fillColor=#e1d5e7;strokeColor=#9673a6;" parent="1" vertex="1">
          <mxGeometry x="990.06" y="730" width="120" height="60" as="geometry" />
        </mxCell>
        <mxCell id="NcC6NG_0m3Hqj47DifXg-40" value="&lt;div&gt;Schermata modifica dati&lt;/div&gt;" style="rounded=0;whiteSpace=wrap;html=1;fillColor=#e1d5e7;strokeColor=#9673a6;" parent="1" vertex="1">
          <mxGeometry x="1520" y="625" width="120" height="60" as="geometry" />
        </mxCell>
        <mxCell id="NcC6NG_0m3Hqj47DifXg-46" value="&lt;div&gt;Schermata modifica dati senza casella &quot;username&quot;&lt;br&gt;&lt;/div&gt;" style="rounded=0;whiteSpace=wrap;html=1;fillColor=#e1d5e7;strokeColor=#9673a6;" parent="1" vertex="1">
          <mxGeometry x="1180" y="860" width="120" height="60" as="geometry" />
        </mxCell>
        <mxCell id="NcC6NG_0m3Hqj47DifXg-49" value="Modifica " style="text;strokeColor=none;fillColor=none;align=left;verticalAlign=middle;spacingLeft=4;spacingRight=4;overflow=hidden;points=[[0,0.5],[1,0.5]];portConstraint=eastwest;rotatable=0;whiteSpace=wrap;html=1;fontColor=#0080FF;" parent="1" vertex="1">
          <mxGeometry x="1165" y="752.5" width="60" height="15" as="geometry" />
        </mxCell>
        <mxCell id="NcC6NG_0m3Hqj47DifXg-47" value="" style="endArrow=classic;html=1;rounded=0;edgeStyle=orthogonalEdgeStyle;" parent="1" source="NcC6NG_0m3Hqj47DifXg-49" target="NcC6NG_0m3Hqj47DifXg-46" edge="1">
          <mxGeometry width="50" height="50" relative="1" as="geometry">
            <mxPoint x="1019.06" y="815" as="sourcePoint" />
            <mxPoint x="1069.06" y="765" as="targetPoint" />
            <Array as="points">
              <mxPoint x="1240.06" y="760" />
            </Array>
          </mxGeometry>
        </mxCell>
        <mxCell id="NcC6NG_0m3Hqj47DifXg-48" value="" style="endArrow=none;html=1;rounded=0;edgeStyle=orthogonalEdgeStyle;" parent="1" source="NcC6NG_0m3Hqj47DifXg-45" target="NcC6NG_0m3Hqj47DifXg-49" edge="1">
          <mxGeometry width="50" height="50" relative="1" as="geometry">
            <mxPoint x="1150.06" y="775" as="sourcePoint" />
            <mxPoint x="1210.06" y="865" as="targetPoint" />
            <Array as="points" />
          </mxGeometry>
        </mxCell>
        <mxCell id="NcC6NG_0m3Hqj47DifXg-102" value="DB Promozioni" style="rounded=0;whiteSpace=wrap;html=1;fillColor=#e1d5e7;strokeColor=#9673a6;" parent="1" vertex="1">
          <mxGeometry x="990" y="900" width="120" height="60" as="geometry" />
        </mxCell>
        <mxCell id="NcC6NG_0m3Hqj47DifXg-42" value="Modifica " style="text;strokeColor=none;fillColor=none;align=left;verticalAlign=middle;spacingLeft=4;spacingRight=4;overflow=hidden;points=[[0,0.5],[1,0.5]];portConstraint=eastwest;rotatable=0;whiteSpace=wrap;html=1;fontColor=#0080FF;" parent="1" vertex="1">
          <mxGeometry x="1390" y="640" width="60" height="30" as="geometry" />
        </mxCell>
        <mxCell id="NcC6NG_0m3Hqj47DifXg-41" value="" style="endArrow=classic;html=1;rounded=0;edgeStyle=orthogonalEdgeStyle;" parent="1" source="NcC6NG_0m3Hqj47DifXg-42" target="NcC6NG_0m3Hqj47DifXg-40" edge="1">
          <mxGeometry width="50" height="50" relative="1" as="geometry">
            <mxPoint x="1465.06" y="695" as="sourcePoint" />
            <mxPoint x="1245.06" y="700" as="targetPoint" />
            <Array as="points">
              <mxPoint x="1510" y="655" />
              <mxPoint x="1510" y="655" />
            </Array>
          </mxGeometry>
        </mxCell>
        <mxCell id="NcC6NG_0m3Hqj47DifXg-44" value="" style="endArrow=none;html=1;rounded=0;edgeStyle=orthogonalEdgeStyle;" parent="1" source="8zPGC6kLLm4aPPDFNiIK-26" target="NcC6NG_0m3Hqj47DifXg-42" edge="1">
          <mxGeometry width="50" height="50" relative="1" as="geometry">
            <mxPoint x="1306.06" y="665" as="sourcePoint" />
            <mxPoint x="1366.06" y="755" as="targetPoint" />
            <Array as="points">
              <mxPoint x="1370" y="655" />
              <mxPoint x="1370" y="655" />
            </Array>
          </mxGeometry>
        </mxCell>
        <mxCell id="NcC6NG_0m3Hqj47DifXg-104" value="" style="edgeStyle=segmentEdgeStyle;endArrow=none;html=1;curved=0;rounded=0;endSize=8;startSize=8;sourcePerimeterSpacing=0;targetPerimeterSpacing=0;" parent="1" source="NcC6NG_0m3Hqj47DifXg-45" target="NU3KpsRYySIQvtl1-evu-32" edge="1">
          <mxGeometry width="100" relative="1" as="geometry">
            <mxPoint x="940.06" y="850" as="sourcePoint" />
            <mxPoint x="1050" y="830" as="targetPoint" />
            <Array as="points" />
          </mxGeometry>
        </mxCell>
        <mxCell id="NcC6NG_0m3Hqj47DifXg-105" value="" style="edgeStyle=segmentEdgeStyle;endArrow=classic;html=1;curved=0;rounded=0;endSize=8;startSize=8;sourcePerimeterSpacing=0;targetPerimeterSpacing=0;" parent="1" source="NU3KpsRYySIQvtl1-evu-32" target="NcC6NG_0m3Hqj47DifXg-102" edge="1">
          <mxGeometry width="100" relative="1" as="geometry">
            <mxPoint x="1050.06" y="860" as="sourcePoint" />
            <mxPoint x="1090.06" y="970" as="targetPoint" />
            <Array as="points" />
          </mxGeometry>
        </mxCell>
        <mxCell id="NcC6NG_0m3Hqj47DifXg-107" value="&lt;font color=&quot;#0080ff&quot;&gt;Crea/Modifica/Cancella&lt;/font&gt;" style="text;html=1;align=center;verticalAlign=middle;resizable=0;points=[];autosize=1;strokeColor=none;fillColor=none;" parent="1" vertex="1">
          <mxGeometry x="975.06" y="1015" width="150" height="30" as="geometry" />
        </mxCell>
        <mxCell id="NcC6NG_0m3Hqj47DifXg-108" value="" style="edgeStyle=segmentEdgeStyle;endArrow=none;html=1;curved=0;rounded=0;endSize=8;startSize=8;sourcePerimeterSpacing=0;targetPerimeterSpacing=0;" parent="1" source="NcC6NG_0m3Hqj47DifXg-102" target="NcC6NG_0m3Hqj47DifXg-107" edge="1">
          <mxGeometry width="100" relative="1" as="geometry">
            <mxPoint x="810.06" y="940" as="sourcePoint" />
            <mxPoint x="910.06" y="980" as="targetPoint" />
            <Array as="points">
              <mxPoint x="960.06" y="940" />
              <mxPoint x="960.06" y="1030" />
            </Array>
          </mxGeometry>
        </mxCell>
        <mxCell id="NcC6NG_0m3Hqj47DifXg-109" value="" style="edgeStyle=segmentEdgeStyle;endArrow=classic;html=1;curved=0;rounded=0;endSize=8;startSize=8;sourcePerimeterSpacing=0;targetPerimeterSpacing=0;" parent="1" source="NcC6NG_0m3Hqj47DifXg-107" target="NcC6NG_0m3Hqj47DifXg-102" edge="1">
          <mxGeometry width="100" relative="1" as="geometry">
            <mxPoint x="940.06" y="1070" as="sourcePoint" />
            <mxPoint x="1040.06" y="1110" as="targetPoint" />
            <Array as="points">
              <mxPoint x="1140.06" y="1030" />
              <mxPoint x="1140.06" y="940" />
            </Array>
          </mxGeometry>
        </mxCell>
        <mxCell id="NcC6NG_0m3Hqj47DifXg-117" value="" style="edgeStyle=segmentEdgeStyle;endArrow=none;html=1;curved=0;rounded=0;endSize=8;startSize=8;sourcePerimeterSpacing=0;targetPerimeterSpacing=0;" parent="1" source="NcC6NG_0m3Hqj47DifXg-53" edge="1">
          <mxGeometry width="100" relative="1" as="geometry">
            <mxPoint x="910" y="1290.5" as="sourcePoint" />
            <mxPoint x="900" y="1380.5" as="targetPoint" />
            <Array as="points">
              <mxPoint x="880" y="1290.5" />
              <mxPoint x="880" y="1380.5" />
            </Array>
          </mxGeometry>
        </mxCell>
        <mxCell id="NU3KpsRYySIQvtl1-evu-32" value="&lt;div&gt;Promozioni&lt;/div&gt;" style="text;strokeColor=none;fillColor=none;align=left;verticalAlign=middle;spacingLeft=4;spacingRight=4;overflow=hidden;points=[[0,0.5],[1,0.5]];portConstraint=eastwest;rotatable=0;whiteSpace=wrap;html=1;fontColor=#0080FF;" vertex="1" parent="1">
          <mxGeometry x="1012.59" y="830" width="74.94" height="15" as="geometry" />
        </mxCell>
        <mxCell id="NU3KpsRYySIQvtl1-evu-33" value="Utenti" style="text;strokeColor=none;fillColor=none;align=left;verticalAlign=middle;spacingLeft=4;spacingRight=4;overflow=hidden;points=[[0,0.5],[1,0.5]];portConstraint=eastwest;rotatable=0;whiteSpace=wrap;html=1;fontColor=#0080FF;" vertex="1" parent="1">
          <mxGeometry x="1125.06" y="1210" width="60" height="19" as="geometry" />
        </mxCell>
        <mxCell id="NU3KpsRYySIQvtl1-evu-34" value="Promozioni" style="text;strokeColor=none;fillColor=none;align=left;verticalAlign=middle;spacingLeft=4;spacingRight=4;overflow=hidden;points=[[0,0.5],[1,0.5]];portConstraint=eastwest;rotatable=0;whiteSpace=wrap;html=1;fontColor=#0080FF;" vertex="1" parent="1">
          <mxGeometry x="1300" y="1200" width="80" height="19" as="geometry" />
        </mxCell>
        <mxCell id="NU3KpsRYySIQvtl1-evu-35" value="&lt;div&gt;Statistiche&lt;/div&gt;" style="text;strokeColor=none;fillColor=none;align=left;verticalAlign=middle;spacingLeft=4;spacingRight=4;overflow=hidden;points=[[0,0.5],[1,0.5]];portConstraint=eastwest;rotatable=0;whiteSpace=wrap;html=1;fontColor=#0080FF;" vertex="1" parent="1">
          <mxGeometry x="1710" y="1200" width="70" height="19" as="geometry" />
        </mxCell>
        <mxCell id="NU3KpsRYySIQvtl1-evu-36" value="FAQ" style="text;strokeColor=none;fillColor=none;align=left;verticalAlign=middle;spacingLeft=4;spacingRight=4;overflow=hidden;points=[[0,0.5],[1,0.5]];portConstraint=eastwest;rotatable=0;whiteSpace=wrap;html=1;fontColor=#0080FF;" vertex="1" parent="1">
          <mxGeometry x="1922.5" y="1200" width="35" height="19" as="geometry" />
        </mxCell>
      </root>
    </mxGraphModel>
  </diagram>
</mxfile>
